# xmcd
#
# Track frame offsets:
#	150
#	18880
#	43998
#	57713
#	75658
#	92980
#	107142
#	120953
#	133575
#	144792
#	155897
#	176963
#	191004
#	206809
#	221217
#	233631
#	245537
#	258339
#	275915
#	288711
#	299553
#	314736
#
# Disc length: 4407 seconds
#
# Revision: 1
# Processed by: cddbd v1.5.2PL0 Copyright (c) Steve Scherf et al.
# Submitted via: EZCDAudioConverter 6.0.0.1
#
DISCID=6a113516
DTITLE=Bluesberry - 45 let live and hoste
DYEAR=2016
DGENRE=Blues
TTITLE0=My jsme ty Kapacity
TTITLE1=Noci jsou dlouhý
TTITLE2=Josefina
TTITLE3=Tvá máma je dáma
TTITLE4=Ve mně to hučí
TTITLE5=Ještě mám čas
TTITLE6=Alberta
TTITLE7=Myslivecké blues
TTITLE8=Na tutáč
TTITLE9=Malostranská holka
TTITLE10=Nádraží
TTITLE11=Stop blues
TTITLE12=Kalný vody
TTITLE13=Turistické blues
TTITLE14=Sklo
TTITLE15=Užívám spoustu léků
TTITLE16=Vepřová
TTITLE17=Blues poslední Startky
TTITLE18=Dobrejtro blues
TTITLE19=Takovou ženu
TTITLE20=Co je to blues
TTITLE21=Blues o Malostranský besedě
EXTD=
EXTT0=
EXTT1=
EXTT2=
EXTT3=
EXTT4=
EXTT5=
EXTT6=
EXTT7=
EXTT8=
EXTT9=
EXTT10=
EXTT11=
EXTT12=
EXTT13=
EXTT14=
EXTT15=
EXTT16=
EXTT17=
EXTT18=
EXTT19=
EXTT20=
EXTT21=
PLAYORDER=
